# xmcd CD database file
#
# Track frame offsets:
#	150
#	17029
#	36514
#	54674
#	77846
#	94096
#	108632
#	126520
#	142901
#	164776
#	183538
#	201592
#	221982
#	239280
#
# Disc length: 3417 seconds
#
# Revision: 0
# Processed by: cddbd v1.5.1PL0 Copyright (c) Steve Scherf et al.
# Submitted via: CDex 1.51
#
DISCID=dd0d570e
DTITLE=Beverley Craven - The Very Best Of
DYEAR=2004
DGENRE=New Age
TTITLE0=Promise Me
TTITLE1=Woman to Woman
TTITLE2=Holding On
TTITLE3=Memories
TTITLE4=Joey
TTITLE5=Two of a Kind
TTITLE6=Love Scenes
TTITLE7=Love is the Light
TTITLE8=Mollie's Song
TTITLE9=Feels like the Fist Time
TTITLE10=We Found a Place
TTITLE11=Say You're Sorry
TTITLE12=Phoenix From The Fire
TTITLE13=Tick Toc
EXTD=YEAR: 2004
EXTT0=
EXTT1=
EXTT2=
EXTT3=
EXTT4=
EXTT5=
EXTT6=
EXTT7=
EXTT8=
EXTT9=
EXTT10=
EXTT11=
EXTT12=
EXTT13=
PLAYORDER=
